<svg xmlns="http://www.w3.org/2000/svg" width="636.656" height="480.371" viewBox="0 0 636.656 480.371">
  <g id="Group_7" data-name="Group 7" transform="translate(-695.778 -112)">
    <path id="Path_80" data-name="Path 80" d="M899.335,124.769H718.019a38.489,38.489,0,0,0-37.6,29.866L588.8,558.256a30.778,30.778,0,0,0,5.588,25.528,31.215,31.215,0,0,0,23.269,12.181l186.4,9.122a41.1,41.1,0,0,0,42.523-33.552l51.973-285.365,3.866,1.1,9.947-54.088-3.98-.988,14.507-79.656a23.457,23.457,0,0,0-5.2-19.383,23.8,23.8,0,0,0-18.347-8.385Z" transform="translate(409.162 -12.766)" fill="#3f3d56"/>
    <path id="Path_81" data-name="Path 81" d="M748.427,136.4H727.179a26.661,26.661,0,0,0-26.129,20.744L612.757,556.071a16.154,16.154,0,0,0,2.951,13.308,16.636,16.636,0,0,0,12.157,6.475L814.4,587.907a21.4,21.4,0,0,0,22.526-17.361l75.34-412.335a18.342,18.342,0,0,0-4.078-15.17,18.908,18.908,0,0,0-14.422-6.646H873.609a8.852,8.852,0,0,0-8.567,6.472h0a7.815,7.815,0,0,1-7.566,5.714h-95.7A13.316,13.316,0,0,1,748.427,136.4Z" transform="translate(401.457 -12.766)" fill="#fff"/>
    <path id="Path_93" data-name="Path 93" d="M825.612,375.539a1.191,1.191,0,0,0,1.229-.921l32.922-169.177a1.079,1.079,0,0,0-.252-.918,1.219,1.219,0,0,0-.906-.41l-149.785-1.647h-.014a1.184,1.184,0,0,0-1.162.878L668.834,367.031a1.075,1.075,0,0,0,.215.927,1.213,1.213,0,0,0,.889.441Z" transform="translate(423.216 -27.766)" fill="#e6e6e6"/>
    <path id="Path_94" data-name="Path 94" d="M713.229,529.535a1,1,0,0,0-.973.773l-2.323,9.956a1,1,0,0,0,.9,1.225l131.23,9.327a1.009,1.009,0,0,0,1.053-.807l2.234-11.519a1,1,0,0,0-.922-1.188L713.29,529.537Z" transform="translate(381.667 -152.958)" fill="#e6e6e6"/>
    <path id="Path_95" data-name="Path 95" d="M872.666,587.808a1,1,0,0,0,1.051-.758l2.844-11.543a1,1,0,0,0-.9-1.237L708.072,562.549a.989.989,0,0,0-1.029.713l-2.955,9.975a1,1,0,0,0,.878,1.28Z" transform="translate(362.157 -152.854)" fill="#e6e6e6"/>
    <path id="Path_96" data-name="Path 96" d="M863.666,624.808a1,1,0,0,0,1.051-.758l2.844-11.543a1,1,0,0,0-.9-1.237L699.072,599.549a.989.989,0,0,0-1.029.713l-2.955,9.975a1,1,0,0,0,.878,1.28Z" transform="translate(357.74 -153.088)" fill="#e6e6e6"/>
    <path id="Path_79" data-name="Path 79" d="M477.321,752.008c0,8.369-69.532,9.26-155.111,15.153-85.5,5.887-155.111-6.784-155.111-15.153S237.032,726.8,322.21,736.855C407.789,746.957,477.321,743.639,477.321,752.008Z" transform="translate(528.679 -176.614)" fill="#e6e6e6"/>
    <path id="Path_97" data-name="Path 97" d="M805.346,688.283a1.17,1.17,0,0,0,1.259-.754l7.115-24.051a.877.877,0,0,0-.185-.825,1.245,1.245,0,0,0-.864-.415l-121.777-8.656a1.2,1.2,0,0,0-1.254.779l-6.069,23.083a.88.88,0,0,0,.2.806,1.245,1.245,0,0,0,.846.407Z" transform="translate(377.16 -170.634)" fill="#6c63ff"/>
    <path id="Path_111" data-name="Path 111" d="M315.09,570.537a10.743,10.743,0,0,0,1.582-16.4l4.167-93.018L299.624,463.5l1.233,90.985a10.8,10.8,0,0,0,14.234,16.048Z" transform="translate(487.168 -142.938)" fill="#a0616a"/>
    <path id="Path_112" data-name="Path 112" d="M69.534,574.966l12.075,2.123,11.934-45.564-15.821-3.133Z" transform="translate(765.849 -8.126)" fill="#a0616a"/>
    <path id="Path_113" data-name="Path 113" d="M0,0H38.531V14.887H14.887A14.887,14.887,0,0,1,0,0Z" transform="translate(868.282 584.266) rotate(-170.029)" fill="#2f2e41"/>
    <path id="Path_114" data-name="Path 114" d="M36.392,581.01h12.26l5.832-47.288H36.39Z" transform="translate(769.404 -8.126)" fill="#a0616a"/>
    <path id="Path_115" data-name="Path 115" d="M0,0H38.531V14.887H14.887A14.887,14.887,0,0,1,0,0H0Z" transform="translate(841.017 584.269) rotate(179.997)" fill="#2f2e41"/>
    <path id="Path_116" data-name="Path 116" d="M371.8,717.09a4.715,4.715,0,0,1-.572-.034l-14.43-1.187a4.881,4.881,0,0,1-4.243-5.659l14.325-70.681-9-47.474a1.627,1.627,0,0,0-3.219.16L341.4,712.842a4.924,4.924,0,0,1-5.21,4.437l-13.6-.506a4.888,4.888,0,0,1-4.536-4.631l1.086-145.768,70.481-8.81,4.924,76.041-.02.081-17.991,79.675a4.886,4.886,0,0,1-4.739,3.729Z" transform="translate(482.337 -161.156)" fill="#2f2e41"/>
    <circle id="Ellipse_16" data-name="Ellipse 16" cx="24.561" cy="24.561" r="24.561" transform="translate(801.775 220.697)" fill="#a0616a"/>
    <path id="Path_117" data-name="Path 117" d="M365.53,577.467a20.111,20.111,0,0,1-10.857-3.106c-11.9-7.436-25.411-4.481-32.407-2.057a4.88,4.88,0,0,1-4.221-.481,4.811,4.811,0,0,1-2.224-3.552L303.1,454.646c-2.132-19.038,9.336-36.937,27.268-42.56h0q1.011-.317,2.055-.6a39.569,39.569,0,0,1,32.972,5.723,40.2,40.2,0,0,1,17.167,29.353l10.711,114.387a4.807,4.807,0,0,1-1.527,4.007C387.99,568.428,377.092,577.466,365.53,577.467Z" transform="translate(483.305 -139.333)" fill="#6c63ff"/>
    <path id="Path_118" data-name="Path 118" d="M326.789,479.012l-28.7-3.156a5.717,5.717,0,0,1-4.9-7.134l7.306-27.846a15.879,15.879,0,1,1,31.557,3.563l1.084,28.675a5.718,5.718,0,0,1-6.338,5.9Z" transform="translate(487.003 -138.06)" fill="#6c63ff"/>
    <path id="Path_119" data-name="Path 119" d="M393.156,566.554a10.743,10.743,0,0,0-.406-16.468l-7.073-92.842-20.789,4.68,12.2,90.414a10.8,10.8,0,0,0,16.064,14.216Z" transform="translate(480.008 -142.573)" fill="#a0616a"/>
    <path id="Path_120" data-name="Path 120" d="M356.919,473.176a5.711,5.711,0,0,1-1.818-4.4l1.085-28.675a15.878,15.878,0,1,1,31.556-3.563l7.306,27.846a5.717,5.717,0,0,1-4.905,7.134l-28.7,3.156a5.711,5.711,0,0,1-4.52-1.5Z" transform="translate(480.507 -137.693)" fill="#6c63ff"/>
    <path id="Path_121" data-name="Path 121" d="M340.927,401.771a5.683,5.683,0,0,1-1.3-.151l-.125-.03c-21.594-3.3-26.367-15.812-27.414-21.035-1.084-5.408.15-10.628,2.94-12.656-1.521-4.8-1.277-9.061.727-12.662,3.5-6.28,11.081-8.4,12.1-8.664,6.058-4.469,13.306-1.486,14.625-.881,11.719-4.335,16.2-.727,17.008.079,5.238.941,8.431,2.964,9.491,6.016,1.991,5.731-4.3,12.86-4.574,13.161l-.14.156-9.38.447a6.358,6.358,0,0,0-5.981,7.317h0a29.609,29.609,0,0,0,.96,3.355c1.6,5.006,2.8,9.283,1.254,10.909a2.51,2.51,0,0,1-2.625.455c-1.467-.392-2.462-.31-2.958.245-.77.859-.535,3.035.662,6.125a5.739,5.739,0,0,1-1.046,5.847,5.568,5.568,0,0,1-4.226,1.967Z" transform="translate(484.167 -131.027)" fill="#2f2e41"/>
  </g>
</svg>
